<svg width="667" height="534" viewBox="0 0 667 534" fill="none" xmlns="http://www.w3.org/2000/svg">
<path fill-rule="evenodd" clip-rule="evenodd" d="M39.0523 39.0523C3.97364e-06 78.105 0 140.959 0 266.667C0 392.373 3.97364e-06 455.23 39.0523 494.28C78.105 533.333 140.959 533.333 266.667 533.333H400C525.707 533.333 588.563 533.333 627.613 494.28C666.667 455.23 666.667 392.373 666.667 266.667C666.667 140.959 666.667 78.105 627.613 39.0523C588.563 -3.97364e-06 525.707 0 400 0H266.667C140.959 0 78.105 -3.97364e-06 39.0523 39.0523ZM358.34 200C358.34 186.193 347.147 175 333.34 175C319.533 175 308.34 186.193 308.34 200V223.373L288.093 211.683C276.137 204.78 260.847 208.877 253.943 220.833C247.04 232.79 251.136 248.08 263.094 254.983L283.323 266.663L263.086 278.35C251.129 285.253 247.032 300.543 253.935 312.5C260.839 324.457 276.13 328.553 288.087 321.65L308.34 309.957V333.333C308.34 347.14 319.533 358.333 333.34 358.333C347.147 358.333 358.34 347.14 358.34 333.333V309.977L378.563 321.65C390.52 328.553 405.81 324.457 412.713 312.5C419.617 300.543 415.52 285.253 403.563 278.35L383.323 266.663L403.557 254.983C415.513 248.08 419.61 232.79 412.707 220.833C405.803 208.877 390.513 204.78 378.557 211.683L358.34 223.353V200ZM157.755 175C171.562 175 182.755 186.193 182.755 200V223.353L202.97 211.683C214.927 204.78 230.217 208.877 237.121 220.833C244.024 232.79 239.927 248.08 227.97 254.983L207.739 266.663L227.978 278.35C239.935 285.253 244.032 300.543 237.129 312.5C230.225 324.457 214.935 328.553 202.978 321.65L182.755 309.977V333.333C182.755 347.14 171.562 358.333 157.755 358.333C143.948 358.333 132.755 347.14 132.755 333.333V309.957L112.5 321.65C100.543 328.553 85.253 324.457 78.3493 312.5C71.4457 300.543 75.5427 285.253 87.5 278.35L107.739 266.663L87.5077 254.983C75.5507 248.08 71.4537 232.79 78.3573 220.833C85.2607 208.877 100.551 204.78 112.508 211.683L132.755 223.373V200C132.755 186.193 143.948 175 157.755 175ZM533.937 200C533.937 186.193 522.743 175 508.937 175C495.13 175 483.937 186.193 483.937 200V223.373L463.687 211.683C451.73 204.78 436.44 208.877 429.537 220.833C422.633 232.79 426.73 248.08 438.687 254.983L458.92 266.663L438.68 278.35C426.723 285.253 422.627 300.543 429.53 312.5C436.433 324.457 451.723 328.553 463.68 321.65L483.937 309.957V333.333C483.937 347.14 495.13 358.333 508.937 358.333C522.743 358.333 533.937 347.14 533.937 333.333V309.977L554.157 321.65C566.117 328.553 581.407 324.457 588.31 312.5C595.213 300.543 591.117 285.253 579.157 278.35L558.92 266.663L579.15 254.983C591.107 248.08 595.203 232.79 588.3 220.833C581.397 208.877 566.107 204.78 554.15 211.683L533.937 223.353V200Z" fill="white"/>
</svg>
