<svg width="667" height="534" viewBox="0 0 667 534" fill="none" xmlns="http://www.w3.org/2000/svg">
<path fill-rule="evenodd" clip-rule="evenodd" d="M132.267 1.44223e-05H534.4C549.02 -0.000318911 561.637 -0.000655341 572.08 0.711678C583.073 1.46201 594.07 3.11202 604.937 7.61202C629.437 17.7614 648.907 37.229 659.053 61.7317C663.553 72.596 665.203 83.593 665.957 94.5873C666.667 105.029 666.667 117.645 666.667 132.267V401.067C666.667 415.687 666.667 428.303 665.957 438.747C665.203 449.74 663.553 460.737 659.053 471.603C648.907 496.103 629.437 515.573 604.937 525.72C594.07 530.22 583.073 531.87 572.08 532.623C561.637 533.333 549.02 533.333 534.4 533.333H132.267C117.645 533.333 105.029 533.333 94.5873 532.623C83.593 531.87 72.596 530.22 61.7317 525.72C37.229 515.573 17.7613 496.103 7.61201 471.603C3.11201 460.737 1.46201 449.74 0.711678 438.747C-0.000655341 428.303 -0.000318911 415.687 1.44223e-05 401.067V132.267C-0.000318911 117.646 -0.000655341 105.029 0.711678 94.5873C1.46201 83.593 3.11201 72.596 7.61201 61.7317C17.7613 37.229 37.229 17.7614 61.7317 7.61202C72.596 3.11202 83.593 1.46201 94.5873 0.711678C105.029 -0.000655341 117.646 -0.000318911 132.267 1.44223e-05ZM77.2483 75.9257C89.3713 62.0713 110.43 60.6673 124.285 72.79L311.383 236.5C323.95 247.497 342.717 247.497 355.283 236.5L542.383 72.79C556.237 60.6673 577.297 62.0713 589.417 75.9257C601.54 89.7803 600.137 110.839 586.283 122.962L399.183 286.673C361.48 319.663 305.187 319.663 267.483 286.673L80.3843 122.962C66.5297 110.839 65.1257 89.7803 77.2483 75.9257Z" fill="white"/>
</svg>
